<?xml version="1.0" encoding="utf-8"?>
<!-- Generator: Adobe Illustrator 24.3.0, SVG Export Plug-In . SVG Version: 6.00 Build 0)  -->
<svg version="1.1" id="Livello_1" xmlns="http://www.w3.org/2000/svg" xmlns:xlink="http://www.w3.org/1999/xlink" x="0px" y="0px"
	 viewBox="0 0 56.5 56.5" style="enable-background:new 0 0 56.5 56.5;" xml:space="preserve">
<style type="text/css">
	.st0{fill:none;stroke:#000000;stroke-width:0.5;stroke-miterlimit:10;}
</style>
<g>
	<path d="M20.69,2.62c0.35-0.56,0.87-0.92,1.57-1.08c0.94-0.21,1.69-0.05,2.26,0.47c0.32,0.29,0.52,0.61,0.62,0.96l-1.17,0.26
		c-0.13-0.25-0.28-0.43-0.42-0.55c-0.26-0.2-0.6-0.25-1.01-0.16c-0.42,0.09-0.71,0.34-0.87,0.74s-0.17,0.91-0.03,1.54
		s0.38,1.07,0.7,1.33c0.33,0.26,0.68,0.34,1.08,0.25c0.4-0.09,0.68-0.29,0.83-0.61c0.08-0.17,0.13-0.41,0.14-0.72l1.17-0.26
		c0.04,0.63-0.11,1.19-0.44,1.67s-0.81,0.79-1.46,0.93c-0.8,0.18-1.49,0.06-2.06-0.35c-0.57-0.42-0.96-1.08-1.17-1.99
		C20.2,4.09,20.29,3.27,20.69,2.62z"/>
	<path d="M28.12,0.93l1.2,0.07l-0.29,4.71L31.9,5.9l-0.06,1.03l-4.07-0.25L28.12,0.93z"/>
	<path d="M34.58,7.69l-1.15-0.32l1.54-5.55l1.15,0.32L34.58,7.69z"/>
	<path d="M39.46,4c0.63-0.19,1.27-0.12,1.89,0.22c0.84,0.46,1.31,1.07,1.39,1.84c0.04,0.43-0.01,0.81-0.17,1.13l-1.06-0.58
		c0.06-0.28,0.08-0.51,0.04-0.69c-0.07-0.32-0.29-0.58-0.66-0.79c-0.38-0.21-0.76-0.21-1.14-0.02s-0.73,0.57-1.04,1.14
		c-0.31,0.57-0.43,1.05-0.35,1.46c0.08,0.41,0.29,0.71,0.64,0.9c0.36,0.2,0.71,0.23,1.03,0.09c0.18-0.07,0.37-0.22,0.58-0.44
		l1.05,0.57c-0.39,0.5-0.87,0.83-1.43,0.97c-0.56,0.14-1.13,0.06-1.71-0.26c-0.72-0.39-1.16-0.93-1.32-1.62
		c-0.16-0.69-0.01-1.45,0.43-2.26C38.13,4.77,38.73,4.22,39.46,4z"/>
	<path d="M46.27,7.67l0.82,0.85l-1.71,1.65l3.25-0.05l1.08,1.12l-3.34-0.05l-0.71,4.14l-1.08-1.11l0.57-3.02l-0.83-0.01l-1.38,1.34
		l-0.82-0.85L46.27,7.67z"/>
	<path d="M55.48,25.58l-1,0.19l-0.31-1.69l-4.66,0.86l-0.22-1.19l4.66-0.86l-0.32-1.7l1-0.19L55.48,25.58z"/>
	<path d="M49.95,32.46c-0.4-0.48-0.56-1.13-0.47-1.95s0.37-1.42,0.86-1.81c0.61-0.52,1.42-0.73,2.45-0.63
		c1.05,0.11,1.81,0.48,2.27,1.11c0.4,0.48,0.56,1.13,0.47,1.95c-0.08,0.82-0.37,1.42-0.86,1.81c-0.58,0.52-1.4,0.73-2.45,0.62
		C51.19,33.46,50.43,33.09,49.95,32.46z M50.89,31.8c0.32,0.31,0.8,0.5,1.45,0.57c0.64,0.07,1.15-0.02,1.53-0.26
		c0.38-0.24,0.59-0.6,0.64-1.08c0.05-0.47-0.09-0.87-0.41-1.19c-0.32-0.32-0.8-0.51-1.45-0.58c-0.64-0.07-1.16,0.02-1.54,0.27
		c-0.38,0.25-0.59,0.61-0.64,1.08C50.44,31.09,50.57,31.48,50.89,31.8z"/>
	<path d="M46.72,42.47c-0.22-0.14-0.42-0.21-0.59-0.22c-0.31,0-0.62,0.18-0.94,0.55c-0.19,0.22-0.32,0.42-0.39,0.6
		c-0.13,0.34-0.07,0.61,0.17,0.83c0.14,0.12,0.31,0.16,0.5,0.09c0.19-0.06,0.43-0.21,0.72-0.43l0.51-0.38
		c0.5-0.38,0.89-0.6,1.16-0.67c0.45-0.12,0.9,0,1.33,0.37c0.39,0.34,0.59,0.76,0.61,1.27c0.01,0.51-0.22,1.04-0.7,1.6
		c-0.4,0.47-0.86,0.76-1.39,0.88c-0.53,0.12-1.03-0.01-1.51-0.39l0.75-0.88c0.28,0.21,0.56,0.25,0.86,0.13
		c0.2-0.08,0.39-0.23,0.58-0.45c0.21-0.24,0.32-0.47,0.35-0.7c0.03-0.22-0.04-0.41-0.21-0.56c-0.16-0.13-0.33-0.16-0.53-0.09
		c-0.13,0.05-0.36,0.19-0.68,0.43l-0.84,0.61c-0.37,0.27-0.69,0.43-0.96,0.48c-0.43,0.08-0.84-0.04-1.23-0.37
		c-0.4-0.34-0.6-0.78-0.6-1.32s0.24-1.08,0.72-1.65c0.49-0.58,1.01-0.92,1.55-1.03c0.54-0.11,1.04,0.03,1.5,0.42L46.72,42.47z"/>
	<path d="M41.4,52.24l-0.57-0.85l1.43-0.96l-2.63-3.94l1.01-0.67l2.63,3.94l1.44-0.96l0.57,0.85L41.4,52.24z"/>
	<path d="M32.89,49.86c0.28-0.56,0.82-0.96,1.61-1.2c0.79-0.24,1.45-0.21,2,0.09c0.72,0.35,1.23,1.02,1.53,2.01
		c0.31,1.01,0.26,1.85-0.14,2.53c-0.28,0.56-0.82,0.96-1.61,1.2c-0.79,0.24-1.45,0.21-2-0.09c-0.71-0.33-1.22-1.01-1.53-2.01
		C32.45,51.4,32.49,50.56,32.89,49.86z M33.86,50.48c-0.16,0.42-0.15,0.94,0.04,1.56c0.19,0.62,0.47,1.05,0.84,1.31
		c0.37,0.25,0.78,0.31,1.24,0.17c0.46-0.14,0.77-0.42,0.93-0.84c0.17-0.42,0.16-0.94-0.03-1.56c-0.19-0.62-0.47-1.06-0.85-1.31
		c-0.38-0.25-0.79-0.31-1.25-0.17C34.33,49.78,34.03,50.06,33.86,50.48z"/>
	<path d="M26.26,52.21c0.34-0.28,0.83-0.41,1.45-0.4l1.2,0.02l0.03-2.07l1.2,0.02l-0.09,5.76l-2.47-0.04
		c-0.57-0.01-1.02-0.17-1.36-0.47c-0.33-0.3-0.5-0.76-0.49-1.39C25.74,52.97,25.92,52.49,26.26,52.21z M27.15,54.3
		c0.15,0.13,0.36,0.2,0.64,0.2l1.08,0.02l0.03-1.7l-1.08-0.02c-0.27,0-0.49,0.06-0.64,0.2c-0.15,0.14-0.23,0.35-0.24,0.65
		C26.92,53.96,27,54.17,27.15,54.3z"/>
</g>
<path class="st0" d="M20.3,51.41c-9.62-3.3-16.53-12.42-16.53-23.16c0-9.17,5.05-17.17,12.51-21.36"/>
</svg>
