<?xml version="1.0" encoding="utf-8"?>
<!-- Generator: Adobe Illustrator 24.3.0, SVG Export Plug-In . SVG Version: 6.00 Build 0)  -->
<svg version="1.1" id="Livello_1" xmlns="http://www.w3.org/2000/svg" xmlns:xlink="http://www.w3.org/1999/xlink" x="0px" y="0px"
	 viewBox="0 0 56.5 56.5" style="enable-background:new 0 0 56.5 56.5;" xml:space="preserve">
<style type="text/css">
	.st0{fill:none;stroke:#000000;stroke-width:0.5;stroke-miterlimit:10;}
</style>
<g>
	<path d="M20.69,2.62c0.35-0.56,0.87-0.92,1.57-1.08c0.94-0.21,1.69-0.05,2.26,0.47c0.32,0.29,0.52,0.61,0.62,0.96l-1.17,0.26
		c-0.14-0.25-0.28-0.43-0.42-0.55c-0.26-0.2-0.6-0.25-1.01-0.16c-0.42,0.09-0.71,0.34-0.87,0.74s-0.17,0.91-0.03,1.54
		s0.38,1.07,0.7,1.33c0.33,0.26,0.68,0.34,1.08,0.25c0.4-0.09,0.68-0.29,0.83-0.61c0.08-0.17,0.13-0.41,0.14-0.72l1.17-0.26
		c0.04,0.63-0.11,1.19-0.44,1.67s-0.81,0.79-1.46,0.93c-0.8,0.18-1.49,0.06-2.06-0.35c-0.57-0.42-0.96-1.08-1.17-1.99
		C20.2,4.09,20.29,3.27,20.69,2.62z"/>
	<path d="M28.12,0.93l1.2,0.07l-0.29,4.71L31.9,5.9l-0.06,1.03l-4.07-0.25L28.12,0.93z"/>
	<path d="M34.58,7.69l-1.15-0.32l1.54-5.55l1.15,0.32L34.58,7.69z"/>
	<path d="M39.46,4c0.63-0.19,1.27-0.12,1.89,0.22c0.84,0.46,1.31,1.07,1.39,1.84c0.04,0.43-0.01,0.81-0.17,1.13l-1.06-0.58
		c0.06-0.28,0.08-0.51,0.04-0.69c-0.07-0.32-0.29-0.58-0.66-0.79c-0.38-0.21-0.76-0.21-1.14-0.02c-0.39,0.19-0.73,0.57-1.04,1.14
		c-0.31,0.57-0.43,1.05-0.35,1.46c0.08,0.41,0.29,0.71,0.64,0.9c0.36,0.2,0.71,0.23,1.03,0.09c0.18-0.07,0.37-0.22,0.58-0.44
		l1.05,0.57c-0.39,0.5-0.87,0.83-1.43,0.97s-1.13,0.06-1.71-0.26c-0.72-0.39-1.16-0.93-1.32-1.62c-0.16-0.69-0.01-1.45,0.43-2.26
		C38.13,4.77,38.73,4.22,39.46,4z"/>
	<path d="M46.27,7.67l0.82,0.85l-1.7,1.65l3.25-0.05l1.08,1.12l-3.35-0.05l-0.71,4.14l-1.08-1.11l0.57-3.02l-0.83-0.01l-1.38,1.34
		l-0.82-0.85L46.27,7.67z"/>
	<path d="M55.48,25.58l-1,0.19l-0.31-1.69l-4.66,0.86l-0.22-1.19l4.66-0.86l-0.31-1.7l1-0.19L55.48,25.58z"/>
	<path d="M49.95,32.46c-0.4-0.48-0.56-1.13-0.48-1.95c0.08-0.82,0.37-1.42,0.86-1.81c0.61-0.52,1.42-0.73,2.45-0.63
		c1.05,0.11,1.81,0.48,2.27,1.11c0.4,0.48,0.56,1.13,0.48,1.95c-0.08,0.82-0.37,1.42-0.86,1.81c-0.59,0.52-1.4,0.73-2.45,0.62
		C51.19,33.46,50.43,33.09,49.95,32.46z M50.89,31.8c0.32,0.31,0.8,0.5,1.45,0.57c0.64,0.07,1.15-0.02,1.53-0.26
		c0.38-0.24,0.59-0.6,0.64-1.08c0.05-0.47-0.09-0.87-0.41-1.19s-0.8-0.51-1.45-0.58s-1.16,0.02-1.54,0.27
		c-0.38,0.25-0.59,0.61-0.64,1.08C50.44,31.09,50.57,31.48,50.89,31.8z"/>
	<path d="M45.31,45.22c0.01-0.44,0.21-0.9,0.62-1.37l0.78-0.91l-1.57-1.35l0.78-0.91l4.37,3.74l-1.61,1.88
		c-0.37,0.43-0.78,0.68-1.22,0.75s-0.91-0.11-1.38-0.51C45.56,46.1,45.3,45.66,45.31,45.22z M47.48,45.87
		c0.2-0.03,0.38-0.15,0.56-0.36l0.7-0.82l-1.29-1.1l-0.71,0.82c-0.18,0.21-0.27,0.42-0.26,0.62c0.01,0.21,0.12,0.41,0.35,0.6
		C47.08,45.82,47.29,45.9,47.48,45.87z"/>
	<path d="M44.88,49.92l-1,0.67l-2.62-3.93l-2.39,1.59L38.3,47.4l3.39-2.26L44.88,49.92z"/>
	<path d="M36.96,54.09l-1.3,0.4L32,49.61l1.25-0.39l0.71,1.02l2.02-0.63l0.02-1.25l1.2-0.37L36.96,54.09z M35.97,50.65l-1.41,0.44
		l1.37,1.95L35.97,50.65z"/>
	<path d="M28.07,55.53l-1.36,0.05l1.79-3.67l-0.08-2.16l1.2-0.05l0.08,2.16l2.13,3.52l-1.42,0.05l-1.29-2.46L28.07,55.53z"/>
</g>
<path class="st0" d="M23.38,52.25c-11.19-2.26-19.61-12.14-19.61-24c0-9.62,5.55-17.95,13.63-21.95"/>
</svg>
