<?xml version="1.0" encoding="utf-8"?>
<!-- Generator: Adobe Illustrator 24.3.0, SVG Export Plug-In . SVG Version: 6.00 Build 0)  -->
<svg version="1.1" id="Livello_1" xmlns="http://www.w3.org/2000/svg" xmlns:xlink="http://www.w3.org/1999/xlink" x="0px" y="0px"
	 viewBox="0 0 384.56 46.69" style="enable-background:new 0 0 384.56 46.69;" xml:space="preserve">
<style type="text/css">
	.st0{fill:#231F20;}
</style>
<g>
	<path class="st0" d="M22.42,24.06c0,6.65-4.79,11.44-10.87,11.44c-3.09,0-5.31-1.25-6.81-3.15v2.59H0V2.25h4.74v13.52
		c1.5-1.91,3.72-3.15,6.81-3.15C17.63,12.62,22.42,17.41,22.42,24.06z M4.42,24.06c0,3.97,2.63,6.97,6.56,6.97
		c4.08,0,6.56-3.15,6.56-6.97c0-3.81-2.47-6.97-6.56-6.97C7.06,17.09,4.42,20.09,4.42,24.06z"/>
	<path class="st0" d="M42.95,13.23l-1.13,4.7c-1-0.52-2.45-0.79-3.61-0.79c-3.02,0-5.17,2.13-5.17,5.83v11.96h-4.74V13.19h4.7v2.45
		c1.43-2.06,3.65-3.02,6.31-3.02C40.74,12.62,41.86,12.8,42.95,13.23z"/>
	<path class="st0" d="M67.74,34.93H63v-2.61c-1.5,1.93-3.74,3.18-6.83,3.18c-6.08,0-10.87-4.79-10.87-11.44
		c0-6.65,4.79-11.44,10.87-11.44c3.09,0,5.33,1.27,6.83,3.2v-2.63h4.74V34.93z M50.18,24.06c0,3.81,2.47,6.97,6.56,6.97
		c3.93,0,6.56-2.99,6.56-6.97c0-3.97-2.63-6.97-6.56-6.97C52.65,17.09,50.18,20.25,50.18,24.06z"/>
	<path class="st0" d="M95.4,21.27v13.66h-4.77V22.83c0-3.65-1.88-5.7-5.06-5.7c-3.06,0-5.63,2.02-5.63,5.74v12.05h-4.76V13.19h4.72
		v2.65c1.75-2.56,4.45-3.22,6.67-3.22C91.74,12.62,95.4,16.18,95.4,21.27z"/>
	<path class="st0" d="M118.74,15.82V2.25h4.74v32.67h-4.74v-2.61c-1.5,1.93-3.74,3.18-6.83,3.18c-6.08,0-10.87-4.79-10.87-11.44
		c0-6.65,4.79-11.44,10.87-11.44C114.99,12.62,117.24,13.89,118.74,15.82z M105.92,24.06c0,3.81,2.47,6.97,6.56,6.97
		c3.93,0,6.56-2.99,6.56-6.97c0-3.97-2.63-6.97-6.56-6.97C108.39,17.09,105.92,20.25,105.92,24.06z"/>
	<path class="st0" d="M136.63,5.68c0,1.88-1.47,3.31-3.36,3.31c-1.88,0-3.31-1.43-3.31-3.31s1.43-3.36,3.31-3.36
		C135.16,2.32,136.63,3.8,136.63,5.68z M135.68,34.93h-4.77V13.19h4.77V34.93z"/>
	<path class="st0" d="M163.34,21.27v13.66h-4.76V22.83c0-3.65-1.88-5.7-5.06-5.7c-3.06,0-5.63,2.02-5.63,5.74v12.05h-4.77V13.19
		h4.72v2.65c1.75-2.56,4.45-3.22,6.67-3.22C159.68,12.62,163.34,16.18,163.34,21.27z"/>
	<path class="st0" d="M186.29,15.8v-2.61h4.76v20.22c0,6.83-4.4,11.03-11.66,11.03c-3.25,0-6.81-0.88-9.1-2.52l1.72-4.02
		c2.2,1.34,4.72,2.2,7.37,2.2c4.45,0,6.9-2.45,6.9-6.49v-1.75c-1.63,2.09-4.08,3.18-7.24,3.18c-4.97,0-10.07-4.17-10.07-11.21
		c0-7.03,5.11-11.21,10.07-11.21C182.21,12.62,184.66,13.73,186.29,15.8z M173.86,23.83c0,3.65,2.4,6.74,6.42,6.74
		c3.83,0,6.42-2.93,6.42-6.74s-2.59-6.74-6.42-6.74C176.26,17.09,173.86,20.15,173.86,23.83z"/>
	<path class="st0" d="M218.44,33.04v-8.05h-8.01v-4.31h8.01v-8.06h4.4v8.06h8.01v4.31h-8.01v8.05H218.44z"/>
	<path class="st0" d="M266.35,15.82V2.25h4.74v32.67h-4.74v-2.61c-1.5,1.93-3.74,3.18-6.83,3.18c-6.08,0-10.87-4.79-10.87-11.44
		c0-6.65,4.79-11.44,10.87-11.44C262.6,12.62,264.85,13.89,266.35,15.82z M253.53,24.06c0,3.81,2.47,6.97,6.56,6.97
		c3.93,0,6.56-2.99,6.56-6.97c0-3.97-2.63-6.97-6.56-6.97C256,17.09,253.53,20.25,253.53,24.06z"/>
	<path class="st0" d="M284.24,5.68c0,1.88-1.48,3.31-3.36,3.31c-1.88,0-3.31-1.43-3.31-3.31s1.43-3.36,3.31-3.36
		C282.77,2.32,284.24,3.8,284.24,5.68z M283.29,34.93h-4.77V13.19h4.77V34.93z"/>
	<path class="st0" d="M306.48,15.8v-2.61h4.76v20.22c0,6.83-4.4,11.03-11.66,11.03c-3.25,0-6.81-0.88-9.1-2.52l1.72-4.02
		c2.2,1.34,4.72,2.2,7.37,2.2c4.45,0,6.9-2.45,6.9-6.49v-1.75c-1.63,2.09-4.08,3.18-7.24,3.18c-4.97,0-10.07-4.17-10.07-11.21
		c0-7.03,5.11-11.21,10.07-11.21C302.39,12.62,304.84,13.73,306.48,15.8z M294.04,23.83c0,3.65,2.4,6.74,6.42,6.74
		c3.83,0,6.42-2.93,6.42-6.74s-2.59-6.74-6.42-6.74C296.45,17.09,294.04,20.15,294.04,23.83z"/>
	<path class="st0" d="M324.4,5.68c0,1.88-1.48,3.31-3.36,3.31c-1.88,0-3.31-1.43-3.31-3.31s1.43-3.36,3.31-3.36
		C322.92,2.32,324.4,3.8,324.4,5.68z M323.44,34.93h-4.77V13.19h4.77V34.93z"/>
	<path class="st0" d="M345.7,17.5h-8.33v9.46c0,2.93,1.54,4.06,3.45,4.06c1.47,0,3.09-0.66,4.38-1.47l1.88,3.79
		c-1.75,1.18-3.95,2.16-6.67,2.16c-4.92,0-7.81-2.65-7.81-8.44V17.5h-4.33v-4.31h4.33V6.61h4.76v6.58h8.33V17.5z"/>
	<path class="st0" d="M372.35,34.93h-4.74v-2.61c-1.5,1.93-3.74,3.18-6.83,3.18c-6.08,0-10.87-4.79-10.87-11.44
		c0-6.65,4.79-11.44,10.87-11.44c3.08,0,5.33,1.27,6.83,3.2v-2.63h4.74V34.93z M354.79,24.06c0,3.81,2.47,6.97,6.56,6.97
		c3.93,0,6.56-2.99,6.56-6.97c0-3.97-2.63-6.97-6.56-6.97C357.27,17.09,354.79,20.25,354.79,24.06z"/>
	<path class="st0" d="M384.56,34.93h-4.77V2.25h4.77V34.93z"/>
</g>
</svg>
