<svg width="87" height="20" viewBox="0 0 87 20" fill="none" xmlns="http://www.w3.org/2000/svg">
<path d="M47.1 5.54004H44.97V15.26H47.1V5.54004Z" fill="#1D1D1B"/>
<path d="M73.73 15.52C74.95 15.52 75.93 15.08 76.71 14.55L75.87 12.86C75.29 13.22 74.57 13.52 73.91 13.52C73.06 13.52 72.37 13.01 72.37 11.7V7.47004H76.09V5.54004H72.37V2.60004H70.23V5.54004V7.47004H70.24V11.74C70.23 14.33 71.52 15.52 73.73 15.52Z" fill="#1D1D1B"/>
<path d="M65.96 15.52C67.18 15.52 68.16 15.08 68.94 14.55L68.1 12.86C67.52 13.22 66.8 13.52 66.14 13.52C65.29 13.52 64.6 13.01 64.6 11.7V7.47004H68.42V5.54004H64.6V2.60004H62.47V5.54004H60.53V7.47004H62.47V11.74C62.47 14.33 63.76 15.52 65.96 15.52Z" fill="#1D1D1B"/>
<path d="M46.02 3.66002C46.86 3.66002 47.52 3.02002 47.52 2.18002C47.52 1.34002 46.86 0.680023 46.02 0.680023C45.18 0.680023 44.54 1.34002 44.54 2.18002C44.54 3.02002 45.18 3.66002 46.02 3.66002Z" fill="#1D1D1B"/>
<path d="M59.17 10.39C59.16 7.36004 57.29 5.29004 54.57 5.29004C51.71 5.29004 49.73 7.36004 49.73 10.4C49.73 13.49 51.79 15.52 54.7 15.52C56.17 15.52 57.51 15.16 58.7 14.15L57.64 12.64C56.84 13.28 55.8 13.67 54.83 13.67C53.45 13.67 52.22 12.94 51.94 11.19H59.13C59.15 10.94 59.17 10.67 59.17 10.39ZM51.95 9.57004C52.17 8.15004 53.02 7.17004 54.53 7.17004C55.88 7.17004 56.76 8.05004 57 9.57004H51.95Z" fill="#1D1D1B"/>
<path d="M41.64 0.650024H39.51V15.27H41.64V0.650024Z" fill="#1D1D1B"/>
<path d="M86.93 13.73C86.93 12.78 86.11 11.97 85.16 11.97C84.22 11.97 83.38 12.78 83.38 13.74C83.38 14.69 84.21 15.53 85.16 15.53C86.11 15.52 86.93 14.69 86.93 13.73Z" fill="#1D1D1B"/>
<path d="M79.73 0.680023C78.89 0.680023 78.25 1.34002 78.25 2.18002C78.25 3.02002 78.89 3.66002 79.73 3.66002C80.57 3.66002 81.23 3.02002 81.23 2.18002C81.24 1.34002 80.58 0.680023 79.73 0.680023Z" fill="#1D1D1B"/>
<path d="M80.81 5.54004H78.68V15.26H80.81V5.54004Z" fill="#1D1D1B"/>
<path d="M23.67 15.27V5.55002H21.55V6.73002C20.88 5.87002 19.88 5.30002 18.5 5.30002C15.78 5.30002 13.64 7.44002 13.64 10.42C13.64 13.39 15.78 15.54 18.5 15.54C19.88 15.54 20.89 14.98 21.55 14.12V15.28H23.67V15.27ZM18.75 13.52C16.92 13.52 15.82 12.11 15.82 10.4C15.82 8.69002 16.93 7.28002 18.75 7.28002C20.51 7.28002 21.68 8.62002 21.68 10.4C21.68 12.18 20.51 13.52 18.75 13.52Z" fill="#1D1D1B"/>
<path d="M36.18 14.59V5.55002H34.05V6.72002C33.32 5.80002 32.22 5.30002 30.81 5.30002C28.59 5.30002 26.3 7.17002 26.3 10.31C26.3 13.46 28.58 15.33 30.81 15.33C32.22 15.33 33.32 14.84 34.05 13.91V14.69C34.05 16.5 32.95 17.59 30.96 17.59C29.77 17.59 28.65 17.2 27.66 16.6L26.89 18.4C27.92 19.13 29.51 19.53 30.96 19.53H30.97C34.21 19.52 36.18 17.64 36.18 14.59ZM31.36 13.32C29.56 13.32 28.49 11.94 28.49 10.3C28.49 8.66002 29.57 7.29002 31.36 7.29002C33.08 7.29002 34.23 8.60002 34.23 10.3C34.23 12.01 33.07 13.32 31.36 13.32Z" fill="#1D1D1B"/>
<path d="M5.71 13.35C4.07 13.35 2.23 12.68 1.25 11.79L0 13.62C1.47 14.89 3.79 15.53 5.71 15.53C8.79 15.53 11.41 13.95 11.41 11.05C11.41 8.41003 9.14 7.46003 6.83 7.14003L5.85 7.00003C4 6.74003 2.9 6.28003 2.9 5.10003C2.9 3.80003 4.2 2.98003 6.1 2.98003C7.54 2.98003 8.88 3.43003 10.09 4.20003L11.26 2.34003C9.83 1.39003 8.19 0.810028 6.12 0.810028C3.05 0.810028 0.52 2.39003 0.52 5.25003C0.52 7.89003 2.62 8.88003 4.73 9.18003L5.83 9.33003C7.91 9.61003 9.03 10.13 9.03 11.25C9.03 12.56 7.56 13.35 5.71 13.35Z" fill="#1D1D1B"/>
</svg>
